<svg width="64" height="64" viewBox="0 0 64 64" fill="none" xmlns="http://www.w3.org/2000/svg">
<path d="M25.6992 22.2L27.5992 17.6L30.3992 18.5C31.1766 17.4227 32.1219 16.4773 33.1992 15.7L32.2992 12.9L36.8992 11L38.1992 13.7C39.4915 13.5 40.8069 13.5 42.0992 13.7L43.3992 11L47.9992 12.9L47.0992 15.7C48.1765 16.4773 49.1219 17.4227 49.8992 18.5L52.6992 17.6L54.5992 22.2L51.8992 23.5C52.0992 24.7923 52.0992 26.1077 51.8992 27.4L54.5992 28.7L52.6992 33.3L49.8992 32.4C49.1219 33.4773 48.1765 34.4227 47.0992 35.2L47.9992 38L43.3992 39.9L42.0992 37.2C40.8069 37.4 39.4915 37.4 38.1992 37.2L36.8992 39.9L32.2992 38L33.1992 35.2C32.1219 34.4227 31.1766 33.4773 30.3992 32.4L27.5992 33.3L25.6992 28.7L28.3992 27.4C28.1992 26.1077 28.1992 24.7923 28.3992 23.5L25.6992 22.2Z" stroke="#7101D6" stroke-width="2" stroke-miterlimit="10" stroke-linejoin="round"/>
<path d="M42.1172 29.9179C44.5662 28.9031 45.7289 26.0951 44.714 23.6461C43.6992 21.1971 40.8912 20.0344 38.4422 21.0492C35.9931 22.064 34.8305 24.8721 35.8453 27.3211C36.8601 29.7701 39.6681 30.9328 42.1172 29.9179Z" stroke="#7101D6" stroke-width="2" stroke-miterlimit="10" stroke-linejoin="round"/>
<path d="M21.9998 24.3994C21.8504 23.9785 21.6171 23.5922 21.3141 23.2641C21.011 22.936 20.6445 22.6728 20.2367 22.4905C19.8289 22.3082 19.3884 22.2106 18.9417 22.2035C18.4951 22.1965 18.0517 22.2802 17.6384 22.4496C17.2251 22.619 16.8505 22.8705 16.5372 23.189C16.224 23.5074 15.9787 23.8861 15.8161 24.3022C15.6536 24.7182 15.5772 25.1629 15.5916 25.6094C15.6059 26.0558 15.7108 26.4947 15.8998 26.8994C16.1968 27.5603 16.6842 28.1174 17.2998 28.4994" stroke="#7101D6" stroke-width="2" stroke-miterlimit="10" stroke-linejoin="round"/>
<path d="M9.59998 40.4016L10.9 37.2016L13.4 38.2016C13.8958 37.5057 14.5042 36.8974 15.2 36.4016L14.2 33.9016L17.4 32.6016L18.4 35.1016C19.2303 35.0016 20.0697 35.0016 20.9 35.1016L21.9 32.6016L25.1 33.9016L24.1 36.4016C24.7958 36.8974 25.4042 37.5057 25.9 38.2016L28.4 37.2016L29.7 40.4016L27.2 41.4016C27.3 42.2319 27.3 43.0712 27.2 43.9016L29.7 44.9016L28.4 48.1016L25.9 47.1016C25.4042 47.7974 24.7958 48.4057 24.1 48.9016L25.1 51.4016L21.8 52.6016L20.8 50.1016C19.9697 50.2016 19.1303 50.2016 18.3 50.1016L17.3 52.6016L14.1 51.3016L15.1 48.8016C14.4041 48.3057 13.7958 47.6974 13.3 47.0016L10.8 48.0016L9.5 44.8016L12 43.8016C11.9 42.9712 11.9 42.1319 12 41.3016L9.59998 40.4016Z" stroke="#7101D6" stroke-width="2" stroke-miterlimit="10" stroke-linejoin="round"/>
<path d="M13.1 30.3008L10.8 31.4008L9.29999 28.4008L11.6 27.3008C11.4172 26.514 11.3833 25.7 11.5 24.9008L9 24.0008L10.1 20.8008L12.6 21.7008C13.0237 21.0116 13.5653 20.4024 14.2 19.9008L13.1 17.6008L16.1 16.1008L17.2 18.4008C17.9867 18.218 18.8007 18.1841 19.6 18.3008L20.5 15.8008L23.7 16.9008L22.8 19.4008" stroke="#7101D6" stroke-width="2" stroke-miterlimit="10" stroke-linejoin="round"/>
<path d="M22.6183 43.9691C23.3157 42.2853 22.5161 40.3549 20.8323 39.6574C19.1485 38.96 17.2181 39.7596 16.5207 41.4434C15.8232 43.1272 16.6228 45.0576 18.3066 45.755C19.9904 46.4525 21.9208 45.6529 22.6183 43.9691Z" stroke="#7101D6" stroke-width="2" stroke-miterlimit="10" stroke-linejoin="round"/>
</svg>
