<svg width="64" height="64" viewBox="0 0 64 64" fill="none" xmlns="http://www.w3.org/2000/svg">
<path d="M25.0005 24.0005V11.0005C24.9932 10.6045 25.0658 10.2111 25.2139 9.84384C25.3621 9.47655 25.5828 9.14292 25.8629 8.86287C26.1429 8.58282 26.4766 8.36211 26.8438 8.21394C27.2111 8.06577 27.6045 7.99318 28.0005 8.0005H51.0005C51.3965 7.99318 51.7899 8.06577 52.1572 8.21394C52.5245 8.36211 52.8581 8.58282 53.1381 8.86287C53.4182 9.14292 53.6389 9.47655 53.7871 9.84384C53.9352 10.2111 54.0078 10.6045 54.0005 11.0005V37.0005C54.0078 37.3965 53.9352 37.7899 53.7871 38.1572C53.6389 38.5245 53.4182 38.8581 53.1381 39.1381C52.8581 39.4182 52.5245 39.6389 52.1572 39.7871C51.7899 39.9352 51.3965 40.0078 51.0005 40.0005H26.0005" stroke="#7101D6" stroke-width="2" stroke-miterlimit="10"/>
<path d="M30 24V17H36V35H30V32" stroke="#7101D6" stroke-width="2" stroke-miterlimit="10"/>
<path d="M42 24H36V35H42V24Z" stroke="#7101D6" stroke-width="2" stroke-miterlimit="10"/>
<path d="M48 13H42V35H48V13Z" stroke="#7101D6" stroke-width="2" stroke-miterlimit="10"/>
<path d="M23 55V30H28C31 30 32 28.2 32 26H14C12.1 26 9 27.5 9 32V39C9.03681 40.0491 9.47006 41.0453 10.2124 41.7876C10.9547 42.5299 11.9509 42.9632 13 43" stroke="#7101D6" stroke-width="2" stroke-miterlimit="10"/>
<path d="M18 41V55" stroke="#7101D6" stroke-width="2" stroke-miterlimit="10"/>
<path d="M13 32V55" stroke="#7101D6" stroke-width="2" stroke-miterlimit="10"/>
<path d="M21.0005 20.0005C21.0078 20.3965 20.9352 20.7899 20.7871 21.1572C20.6389 21.5245 20.4182 21.8581 20.1381 22.1381C19.8581 22.4182 19.5245 22.6389 19.1572 22.7871C18.7899 22.9352 18.3965 23.0078 18.0005 23.0005H17.0005C16.6045 23.0078 16.2111 22.9352 15.8438 22.7871C15.4766 22.6389 15.1429 22.4182 14.8629 22.1381C14.5828 21.8581 14.3621 21.5245 14.2139 21.1572C14.0658 20.7899 13.9932 20.3965 14.0005 20.0005V17.0005C13.9932 16.6045 14.0658 16.2111 14.2139 15.8438C14.3621 15.4766 14.5828 15.1429 14.8629 14.8629C15.1429 14.5828 15.4766 14.3621 15.8438 14.2139C16.2111 14.0658 16.6045 13.9932 17.0005 14.0005H18.0005C18.3965 13.9932 18.7899 14.0658 19.1572 14.2139C19.5245 14.3621 19.8581 14.5828 20.1381 14.8629C20.4182 15.1429 20.6389 15.4766 20.7871 15.8438C20.9352 16.2111 21.0078 16.6045 21.0005 17.0005V20.0005Z" stroke="#7101D6" stroke-width="2" stroke-miterlimit="10"/>
</svg>
