<svg width="64" height="64" viewBox="0 0 64 64" fill="none" xmlns="http://www.w3.org/2000/svg">
<path d="M45 38.0011H47C49.1217 38.0011 51.1566 37.1583 52.6569 35.658C54.1572 34.1577 55 32.1229 55 30.0011C55 27.8794 54.1572 25.8446 52.6569 24.3443C51.1566 22.844 49.1217 22.0011 47 22.0011C46.6636 21.9848 46.3265 22.0185 46 22.1011V21.8011C46 20.2629 45.3889 18.7876 44.3012 17.6999C43.2135 16.6122 41.7383 16.0011 40.2 16.0011C39.4385 16.0012 38.6867 16.172 38 16.5011C36.9741 14.2038 35.1902 12.3287 32.9469 11.1896C30.7036 10.0504 28.1371 9.71651 25.677 10.2437C23.2169 10.7708 21.0125 12.1271 19.433 14.0854C17.8534 16.0437 16.9945 18.4852 17 21.0011C16.9836 21.3376 17.0173 21.6746 17.1 22.0011H17C14.8783 22.0011 12.8434 22.844 11.3431 24.3443C9.84285 25.8446 9 27.8794 9 30.0011C9 32.1229 9.84285 34.1577 11.3431 35.658C12.8434 37.1583 14.8783 38.0011 17 38.0011H18" stroke="#7101D6" stroke-width="2" stroke-miterlimit="10"/>
<path d="M35.6016 19C36.0988 17.9213 36.944 17.0408 38.0016 16.5" stroke="#7101D6" stroke-width="2" stroke-miterlimit="10"/>
<path d="M17 22.0007C18.0311 21.9867 19.0536 22.1912 20 22.6007" stroke="#7101D6" stroke-width="2" stroke-miterlimit="10"/>
<path d="M21 31C21 33.8 25.7 36 31.5 36C37.3 36 42 33.8 42 31" stroke="#7101D6" stroke-width="2" stroke-miterlimit="10"/>
<path d="M42 31C42 28.2 37.3 26 31.5 26C25.7 26 21 28.2 21 31V37C21 39.8 25.7 42 31.5 42C37.3 42 42 39.8 42 37V31Z" stroke="#7101D6" stroke-width="2" stroke-miterlimit="10"/>
<path d="M21 38V43C21 45.8 25.7 48 31.5 48C37.3 48 42 45.8 42 43V38" stroke="#7101D6" stroke-width="2" stroke-miterlimit="10"/>
<path d="M21 44V49C21 51.8 25.7 54 31.5 54C37.3 54 42 51.8 42 49V44" stroke="#7101D6" stroke-width="2" stroke-miterlimit="10"/>
</svg>
