<svg width="200" height="200" viewBox="0 0 200 200" fill="none" xmlns="http://www.w3.org/2000/svg">
<rect width="200" height="200" fill="#F8F0FF"/>
<path fill-rule="evenodd" clip-rule="evenodd" d="M78.7049 70.0902C78.7049 75.1434 74.9013 79.1868 68.7939 79.1868H68.6819C62.8016 79.1868 59 75.1434 59 70.0902C59 64.9302 62.9173 61 68.9093 61C74.9013 61 78.5912 64.9302 78.7049 70.0902ZM77.5545 86.3733V139H60.0389V86.3733H77.5545ZM140.719 138.991L140.719 108.817C140.719 92.6519 132.079 85.1286 120.552 85.1286C111.253 85.1286 107.089 90.2366 104.765 93.8199V86.3658H87.2469C87.4778 91.304 87.2469 138.993 87.2469 138.993H104.765V109.601C104.765 108.029 104.878 106.46 105.341 105.334C106.607 102.191 109.49 98.938 114.329 98.938C120.669 98.938 123.204 103.764 123.204 110.836V138.991H140.719Z" fill="#CC94FF"/>
</svg>
