<svg width="200" height="200" viewBox="0 0 200 200" fill="none" xmlns="http://www.w3.org/2000/svg">
<rect width="200" height="200" fill="#F8F0FF"/>
<path fill-rule="evenodd" clip-rule="evenodd" d="M98.1994 84.2844C98.1994 80.56 97.2239 77.3677 95.2789 74.6955C92.0373 70.3434 86.5417 68.1136 78.774 68H48V130.83H76.6957C79.9313 130.83 82.9245 130.555 85.6935 129.987C88.4624 129.413 90.8558 128.367 92.8856 126.831C94.6912 125.492 96.1938 123.842 97.3935 121.887C99.29 118.934 100.235 115.592 100.235 111.867C100.235 108.257 99.4051 105.184 97.7571 102.661C96.0908 100.132 93.643 98.2851 90.3953 97.1134C92.5341 96.0374 94.1519 94.8417 95.2547 93.5385C97.2239 91.207 98.1994 88.1164 98.1994 84.2844ZM141.138 78.7372H113.848V70.9179H141.138V78.7372ZM117.031 103.005C117.479 99.98 118.576 97.5828 120.315 95.8133C122.054 94.0438 124.514 93.159 127.665 93.159C130.573 93.159 133.003 93.99 134.978 95.6579C136.929 97.3377 138.032 99.7768 138.256 103.005H117.031ZM138.735 85.3053C142.025 86.752 144.733 89.0476 146.866 92.1801C148.811 94.942 150.059 98.1463 150.629 101.787C150.962 103.915 151.095 107 151.041 111.011H116.728C116.934 115.668 118.558 118.938 121.66 120.809C123.539 121.975 125.799 122.561 128.453 122.561C131.246 122.561 133.53 121.85 135.281 120.433C136.244 119.662 137.093 118.597 137.82 117.234H150.392C150.059 119.984 148.532 122.788 145.83 125.634C141.613 130.147 135.705 132.407 128.113 132.407C121.842 132.407 116.31 130.506 111.53 126.692C106.725 122.884 104.337 116.678 104.337 108.094C104.337 100.041 106.501 93.866 110.821 89.5677C115.153 85.2814 120.757 83.1233 127.659 83.1233C131.761 83.1233 135.451 83.8526 138.735 85.3053ZM60.6985 119.928V103.171H76.3794C79.106 103.195 81.2327 103.554 82.7475 104.235C85.4559 105.461 86.801 107.702 86.801 110.978C86.801 114.84 85.4074 117.447 82.6142 118.822C81.0812 119.557 78.9242 119.928 76.1613 119.928H60.6985ZM60.6985 78.9165V92.7798H76.1855C78.9424 92.7798 81.1903 92.2597 82.9232 91.2195C84.644 90.1793 85.5104 88.338 85.5104 85.7077C85.5104 82.7724 84.3713 80.8415 82.0931 79.8969C80.1178 79.2453 77.6094 78.9165 74.5617 78.9165H60.6985Z" fill="#CC94FF"/>
</svg>
