<svg width="200" height="200" viewBox="0 0 200 200" fill="none" xmlns="http://www.w3.org/2000/svg">
<rect width="200" height="200" fill="#F8F0FF"/>
<path fill-rule="evenodd" clip-rule="evenodd" d="M141.442 100.164C141.442 102.952 141.159 105.736 140.601 108.449C140.058 111.098 139.252 113.699 138.198 116.185C137.167 118.628 135.889 120.981 134.396 123.176C132.924 125.357 131.229 127.403 129.367 129.268C127.501 131.125 125.448 132.816 123.268 134.293C121.066 135.776 118.71 137.053 116.266 138.088C113.776 139.137 111.169 139.941 108.522 140.484C105.805 141.043 103.011 141.328 100.219 141.328C97.4255 141.328 94.6317 141.043 91.9184 140.484C89.2675 139.941 86.6608 139.137 84.1729 138.088C81.7293 137.053 79.3702 135.776 77.1681 134.293C74.9882 132.816 72.9351 131.125 71.0732 129.268C69.2094 127.403 67.5144 125.357 66.0411 123.176C64.5556 120.981 63.2753 118.628 62.2408 116.185C61.1859 113.699 60.3788 111.098 59.8333 108.449C59.2819 105.736 59 102.952 59 100.164C59 97.3743 59.2817 94.5845 59.8335 91.8768C60.379 89.2277 61.186 86.6228 62.2409 84.1406C63.2755 81.6965 64.5557 79.3409 66.0412 77.1459C67.5146 74.9632 69.2095 72.921 71.0734 71.0537C72.9353 69.1964 74.9884 67.5102 77.1683 66.0349C79.3703 64.5454 81.7295 63.2693 84.173 62.2321C86.661 61.1806 89.2675 60.3748 91.9185 59.8362C94.6318 59.2815 97.4257 59 100.22 59C103.011 59 105.805 59.2815 108.522 59.8362C111.169 60.3749 113.776 61.1808 116.266 62.2321C118.71 63.2691 121.067 64.5454 123.269 66.0349C125.449 67.5102 127.502 69.1964 129.368 71.0537C131.229 72.921 132.924 74.9632 134.396 77.1459C135.889 79.3409 137.167 81.6967 138.198 84.1406C139.252 86.6228 140.058 89.2277 140.601 91.8768C141.159 94.5845 141.442 97.3743 141.442 100.164ZM85.2026 68.3726C75.3858 73.0016 68.059 82.0343 65.7744 92.9203L65.8082 92.9206C67.0115 92.9317 81.55 93.0661 98.274 88.6289C92.1812 77.8193 85.6716 68.9978 85.2026 68.3726ZM65.0476 99.0397C65.6715 99.0637 83.0647 99.4536 101.19 94.0349C102.199 96.0087 103.163 98.0106 104.047 100.008C103.584 100.141 103.117 100.278 102.658 100.431C83.6606 106.565 74.0269 123.631 74.039 123.65C68.4312 117.425 65.0194 109.192 65.0194 100.161C65.0194 99.9004 65.028 99.6455 65.0367 99.3885C65.0406 99.2729 65.0445 99.1569 65.0476 99.0397ZM123.47 73.7799C117.272 68.3228 109.134 65.0126 100.221 65.0126C97.3611 65.0126 94.5854 65.3583 91.9264 65.9975L91.9836 66.0741C92.8172 67.189 99.2317 75.7682 105.086 86.5029C118.26 81.5711 123.3 74.0334 123.467 73.7846L123.47 73.7799ZM106.355 105.863C106.383 105.854 106.412 105.845 106.44 105.836C111.394 118.691 113.439 129.457 113.96 132.528C109.735 134.322 105.091 135.314 100.216 135.314C92.0522 135.314 84.5563 132.514 78.58 127.873C78.6534 127.714 85.4363 113.142 106.207 105.912C106.255 105.894 106.305 105.879 106.354 105.863L106.355 105.863ZM119.889 129.322C127.793 123.995 133.407 115.538 134.973 105.741C134.248 105.508 124.399 102.394 113.037 104.213C117.654 116.884 119.53 127.203 119.889 129.322ZM110.135 96.8397C109.404 95.125 108.613 93.4188 107.796 91.7424C121.606 86.1105 127.268 78.0321 127.406 77.8364L127.408 77.8336C132.347 83.8211 135.332 91.469 135.413 99.8022C135.403 99.8002 135.389 99.7973 135.371 99.7935C134.447 99.6014 122.758 97.1702 110.896 98.6607C110.648 98.0578 110.395 97.4548 110.135 96.8397Z" fill="#CC94FF"/>
</svg>
