<svg width="64" height="64" viewBox="0 0 64 64" fill="none" xmlns="http://www.w3.org/2000/svg">
<path d="M51.8261 48.7184H12.1739C11.0679 48.7151 10.0082 48.2743 9.22617 47.4922C8.44412 46.7102 8.0033 45.6505 8 44.5445V41.4141H56V44.5445C55.9967 45.6505 55.5559 46.7102 54.7738 47.4922C53.9918 48.2743 52.9321 48.7151 51.8261 48.7184Z" stroke="#7101D6" stroke-width="2.08696" stroke-miterlimit="10" stroke-linejoin="round"/>
<path d="M28.8711 44.5469H35.132" stroke="#7101D6" stroke-width="2.08696" stroke-miterlimit="10" stroke-linejoin="round"/>
<path d="M52.868 41.4156H11.1289V16.3721C11.1306 15.8191 11.351 15.2893 11.742 14.8982C12.133 14.5072 12.6629 14.2868 13.2159 14.2852H50.7811C51.3341 14.2868 51.8639 14.5072 52.255 14.8982C52.646 15.2893 52.8664 15.8191 52.868 16.3721V41.4156Z" stroke="#7101D6" stroke-width="2.08696" stroke-miterlimit="10" stroke-linejoin="round"/>
<path d="M48.696 38.286V34.1121H45.1482C44.8294 32.7024 44.2642 31.36 43.4786 30.1469L45.9829 27.6425L41.6004 23.2599L39.096 25.7643C37.8371 25.0688 36.5079 24.5092 35.1308 24.0947V20.5469H28.8699V24.0947C27.4602 24.4135 26.1179 24.9787 24.9047 25.7643L22.4003 23.2599L18.0177 27.6425L20.5221 30.1469C19.7546 31.3695 19.1908 32.7087 18.8525 34.1121H15.3047V38.286" stroke="#7101D6" stroke-width="2.08696" stroke-miterlimit="10" stroke-linejoin="round"/>
<path d="M40.348 38.2853C40.348 36.0713 39.4685 33.948 37.903 32.3825C36.3375 30.817 34.2142 29.9375 32.0002 29.9375C29.7862 29.9375 27.6629 30.817 26.0974 32.3825C24.5318 33.948 23.6523 36.0713 23.6523 38.2853" stroke="#7101D6" stroke-width="2.08696" stroke-miterlimit="10" stroke-linejoin="round"/>
</svg>
