<svg xmlns="http://www.w3.org/2000/svg" width="100" height="100" viewBox="0 0 100 100">
  <g id="Nupix_logo_brand-small-100" transform="translate(-2532 -413)">
    <rect id="Rectangle_7" data-name="Rectangle 7" width="100" height="100" transform="translate(2532 413)" fill="none"/>
    <g id="Nupix_logo_black" transform="translate(2425.227 307.963)">
      <path id="Subtraction_4-3" d="M182.85,184.915H171.33a12.427,12.427,0,0,1-6.481-1.439,15.628,15.628,0,0,1-4.682-5.313l-8.3-13.7a11.867,11.867,0,0,0,7.457,2.6,12.015,12.015,0,0,0,12-12c0-.173,0-.352-.012-.532l7.392,12.21a2.444,2.444,0,0,0,.9.179,1.463,1.463,0,0,0,.991-.4,1.342,1.342,0,0,0,.451-1.035,5.212,5.212,0,0,0-.991-2.7l-20.7-34.211a8.752,8.752,0,0,1-.584-1.035,1.876,1.876,0,0,1-.134-.764v-.538a1.218,1.218,0,0,1,.269-.939,1.4,1.4,0,0,1,.9-.234h23.045a3.055,3.055,0,0,1,2.3.722,3.524,3.524,0,0,1,.674,2.429v53.557a3.529,3.529,0,0,1-.674,2.432A3.063,3.063,0,0,1,182.85,184.915Zm-24.931,0H134.875a3.061,3.061,0,0,1-2.295-.722,3.538,3.538,0,0,1-.676-2.432V135.316a10.83,10.83,0,0,0-.361-3.287,4.789,4.789,0,0,0-1.252-1.891,24.477,24.477,0,0,0-3.07-2.29.889.889,0,0,1-.448-.812v-1.079c0-.6.364-.9,1.079-.9H146.4a12.391,12.391,0,0,1,6.481,1.442,15.607,15.607,0,0,1,4.683,5.308l7.8,12.874a12.009,12.009,0,0,0-17.816,12.632l-8.524-14.071a2.187,2.187,0,0,0-.812-.182,1.629,1.629,0,0,0-1.035.405,1.282,1.282,0,0,0-.5,1.035,5.978,5.978,0,0,0,.99,2.7l20.705,34.214a8.629,8.629,0,0,1,.584,1.035,1.881,1.881,0,0,1,.135.768v.539a1.438,1.438,0,0,1-.223.9A1.216,1.216,0,0,1,157.918,184.915Z" transform="translate(0 0)" fill="#7101d6"/>
      <circle id="Ellipse_16-4" cx="6.262" cy="6.262" r="6.262" transform="translate(153.152 148.723)" fill="#fe0074"/>
    </g>
  </g>
</svg>
