<svg width="64" height="64" viewBox="0 0 64 64" fill="none" xmlns="http://www.w3.org/2000/svg">
<path d="M54 32H47L43 36L47 40H54L50 36L54 32Z" stroke="#7101D6" stroke-width="2" stroke-miterlimit="10" stroke-linecap="round" stroke-linejoin="round"/>
<path d="M25 36L39 22" stroke="#7101D6" stroke-width="2" stroke-miterlimit="10" stroke-linecap="round"/>
<path d="M25 36H43" stroke="#7101D6" stroke-width="2" stroke-miterlimit="10" stroke-linecap="round"/>
<path d="M30.2001 39.0002C29.6735 39.9122 28.9163 40.6695 28.0043 41.1961C27.0924 41.7227 26.0579 42.0001 25.0049 42.0002C23.9518 42.0004 22.9173 41.7234 22.0052 41.1971C21.0931 40.6708 20.3355 39.9137 19.8087 39.0019C19.2819 38.0901 19.0043 37.0557 19.0039 36.0026C19.0035 34.9496 19.2802 33.915 19.8063 33.0027C20.3324 32.0905 21.0893 31.3328 22.001 30.8058C22.9127 30.2787 23.947 30.0009 25.0001 30.0002C25.6784 29.9944 26.3533 30.0957 27.0001 30.3002" stroke="#7101D6" stroke-width="2" stroke-miterlimit="10"/>
<path d="M45 11L39 17V22H44L50 16H45V11Z" stroke="#7101D6" stroke-width="2" stroke-miterlimit="10" stroke-linecap="round" stroke-linejoin="round"/>
<path d="M35.799 38C35.4175 40.0533 34.459 41.9553 33.0357 43.4836C31.6123 45.0118 29.7831 46.1029 27.7621 46.6292C25.7411 47.1555 23.612 47.0952 21.6241 46.4553C19.6361 45.8154 17.8716 44.6225 16.5371 43.0161C15.2025 41.4097 14.3532 39.4564 14.0886 37.3849C13.824 35.3133 14.155 33.2092 15.0428 31.319C15.9306 29.4287 17.3386 27.8305 19.1018 26.7114C20.8651 25.5923 22.9107 24.9987 24.999 25C27.13 25.014 29.2123 25.6387 30.999 26.8" stroke="#7101D6" stroke-width="2" stroke-miterlimit="10"/>
<path d="M34.1992 30C34.9945 31.213 35.5386 32.5731 35.7992 34" stroke="#7101D6" stroke-width="2" stroke-miterlimit="10"/>
<path d="M40.9001 38.0002C40.5175 41.0579 39.2607 43.9403 37.2806 46.3014C35.3004 48.6625 32.681 50.4021 29.7366 51.3113C26.7923 52.2206 23.6481 52.2609 20.6814 51.4275C17.7147 50.5941 15.0515 48.9223 13.0114 46.6127C10.9714 44.3032 9.64104 41.454 9.18013 38.4072C8.71922 35.3603 9.14731 32.2451 10.413 29.4355C11.6787 26.6259 13.7283 24.2412 16.3157 22.5676C18.9032 20.894 21.9186 20.0025 25.0001 20.0002C28.6371 19.9801 32.1695 21.2164 35.0001 23.5002" stroke="#7101D6" stroke-width="2" stroke-miterlimit="10"/>
<path d="M37.5 26C39.3488 28.3025 40.5254 31.071 40.9 34" stroke="#7101D6" stroke-width="2" stroke-miterlimit="10"/>
</svg>
