<svg width="64" height="64" viewBox="0 0 64 64" fill="none" xmlns="http://www.w3.org/2000/svg">
<path d="M53.0008 35.7L51.0008 30.9L48.1008 31.9C47.2899 30.7892 46.3116 29.8109 45.2008 29L46.2008 26L41.4008 24L40.0008 26.8C38.6414 26.5999 37.2601 26.5999 35.9008 26.8L34.5008 24L29.7008 26L30.7008 28.9C29.5899 29.7108 28.6116 30.6891 27.8008 31.8L24.8008 30.8L22.8008 35.6L25.6008 37C25.4007 38.3593 25.4007 39.7407 25.6008 41.1L22.8008 42.5L24.8008 47.3L27.7008 46.3C28.5117 47.4108 29.49 48.3891 30.6008 49.2L29.6008 52.2L34.4008 54.2L35.8008 51.4C37.1601 51.6001 38.5414 51.6001 39.9008 51.4L41.3008 54.2L46.1008 52.2L45.1008 49.3C46.2116 48.4892 47.1899 47.5109 48.0008 46.4L51.0008 47.4L53.0008 42.6L50.2008 41.2C50.4008 39.8407 50.4008 38.4593 50.2008 37.1L53.0008 35.7Z" stroke="#7101D6" stroke-width="2" stroke-miterlimit="10" stroke-linejoin="round"/>
<path d="M38 34V39H43" stroke="#7101D6" stroke-width="2" stroke-miterlimit="10" stroke-linejoin="round"/>
<path d="M38 47C42.4183 47 46 43.4183 46 39C46 34.5817 42.4183 31 38 31C33.5817 31 30 34.5817 30 39C30 43.4183 33.5817 47 38 47Z" stroke="#7101D6" stroke-width="2" stroke-miterlimit="10" stroke-linejoin="round"/>
<path d="M43 22V11C42.9984 10.4701 42.7872 9.96227 42.4125 9.58754C42.0377 9.21281 41.5299 9.00158 41 9H19L11 17V50C11.0016 50.5299 11.2128 51.0377 11.5875 51.4125C11.9623 51.7872 12.4701 51.9984 13 52H27" stroke="#7101D6" stroke-width="2" stroke-miterlimit="10"/>
<path d="M14 18H20V12" stroke="#7101D6" stroke-width="2" stroke-miterlimit="10"/>
</svg>
