<svg width="64" height="64" viewBox="0 0 64 64" fill="none" xmlns="http://www.w3.org/2000/svg">
<path d="M32.4008 30.8984L35.5008 38.3984L43.5008 38.9984L37.5008 44.4984L39.2008 51.9984L32.4008 48.1984L25.5008 51.9984L27.3008 44.4984L21.3008 38.9984L29.2008 38.3984L32.4008 30.8984Z" stroke="#7101D6" stroke-width="2" stroke-miterlimit="10" stroke-linejoin="round"/>
<path d="M39.5 35.0016L42.1 34.8016L44.7 28.6016L47.3 34.8016L53.9 35.3016L48.9 39.8016L50.4 46.1016L44.7 42.9016L41.5 44.7016" stroke="#7101D6" stroke-width="2" stroke-miterlimit="10" stroke-linejoin="round"/>
<path d="M24.5 35.0016L21.8 34.8016L19.2 28.6016L16.6 34.8016L10 35.3016L15 39.8016L13.6 46.1016L19.2 42.9016L22.4 44.7016" stroke="#7101D6" stroke-width="2" stroke-miterlimit="10" stroke-linejoin="round"/>
<path d="M39.3008 32V26.5C39.3008 25 35.4008 23 32.3008 23C29.2008 23 25.3008 25 25.3008 26.5V32" stroke="#7101D6" stroke-width="2" stroke-miterlimit="10"/>
<path d="M32.3008 11C30.2008 11 28.3008 12.5 28.3008 14.2V16.7C28.3008 18.5 30.2008 19.9 32.3008 19.9C34.4008 19.9 36.3008 18.4 36.3008 16.7V14.2C36.3008 12.5 34.4008 11 32.3008 11Z" stroke="#7101D6" stroke-width="2" stroke-miterlimit="10"/>
</svg>
