<svg width="64" height="64" viewBox="0 0 64 64" fill="none" xmlns="http://www.w3.org/2000/svg">
<path d="M52 22H26V55H52V22Z" stroke="#7101D6" stroke-width="2" stroke-miterlimit="10"/>
<path d="M30 38V30H34V38" stroke="#7101D6" stroke-width="2" stroke-miterlimit="10" stroke-linejoin="round"/>
<path d="M37 38V26H41V38" stroke="#7101D6" stroke-width="2" stroke-miterlimit="10" stroke-linejoin="round"/>
<path d="M44 38V33H48V38" stroke="#7101D6" stroke-width="2" stroke-miterlimit="10" stroke-linejoin="round"/>
<path d="M29 42H49" stroke="#7101D6" stroke-width="2" stroke-miterlimit="10"/>
<path d="M39 46H49" stroke="#7101D6" stroke-width="2" stroke-miterlimit="10"/>
<path d="M39 50H45" stroke="#7101D6" stroke-width="2" stroke-miterlimit="10"/>
<path d="M36 46H30V50H36V46Z" stroke="#7101D6" stroke-width="2" stroke-miterlimit="10"/>
<path d="M22 43H11V9H37V19" stroke="#7101D6" stroke-width="2" stroke-miterlimit="10"/>
<path d="M15 25V17H19V25" stroke="#7101D6" stroke-width="2" stroke-miterlimit="10" stroke-linejoin="round"/>
<path d="M22 25V13H26V19" stroke="#7101D6" stroke-width="2" stroke-miterlimit="10" stroke-linejoin="round"/>
<path d="M29 19V16H33V19" stroke="#7101D6" stroke-width="2" stroke-miterlimit="10" stroke-linejoin="round"/>
<path d="M14 29H23" stroke="#7101D6" stroke-width="2" stroke-miterlimit="10"/>
<path d="M22 33H15V38H22V33Z" stroke="#7101D6" stroke-width="2" stroke-miterlimit="10"/>
</svg>
